<svg width="21" height="24" viewBox="0 0 21 24" fill="none" xmlns="http://www.w3.org/2000/svg">
<path d="M10.1206 12.9319C10.1455 12.9319 10.1703 12.9319 10.2001 12.9319C10.2101 12.9319 10.22 12.9319 10.23 12.9319C10.2449 12.9319 10.2647 12.9319 10.2797 12.9319C11.7359 12.907 12.9137 12.3951 13.7835 11.416C15.6969 9.25906 15.3788 5.5614 15.3441 5.20853C15.2198 2.55954 13.9674 1.29219 12.9336 0.700766C12.1633 0.258439 11.2637 0.0198799 10.2598 0H10.225C10.22 0 10.2101 0 10.2051 0H10.1753C9.62362 0 8.54016 0.0894595 7.50144 0.680886C6.45774 1.27231 5.18543 2.53966 5.06118 5.20853C5.02639 5.5614 4.70831 9.25906 6.62175 11.416C7.48653 12.3951 8.66441 12.907 10.1206 12.9319ZM6.38816 5.33278C6.38816 5.31787 6.39313 5.30296 6.39313 5.29302C6.55714 1.72955 9.08686 1.34686 10.1703 1.34686H10.1902C10.2001 1.34686 10.215 1.34686 10.23 1.34686C11.5718 1.37668 13.8531 1.92338 14.0071 5.29302C14.0071 5.30793 14.0071 5.32284 14.0121 5.33278C14.0171 5.36757 14.365 8.74715 12.7845 10.5264C12.1583 11.2321 11.3233 11.58 10.225 11.59C10.215 11.59 10.2101 11.59 10.2001 11.59C10.1902 11.59 10.1852 11.59 10.1753 11.59C9.08189 11.58 8.24196 11.2321 7.62072 10.5264C6.04524 8.75709 6.38319 5.3626 6.38816 5.33278Z" fill="#FFC856"/>
<path d="M20.413 19.0648C20.413 19.0599 20.413 19.0549 20.413 19.0499C20.413 19.0102 20.4081 18.9704 20.4081 18.9257C20.3782 17.9416 20.3136 15.6405 18.1567 14.905C18.1418 14.9 18.1219 14.895 18.107 14.89C15.8655 14.3185 14.0018 13.0263 13.9819 13.0114C13.6787 12.7977 13.2612 12.8722 13.0475 13.1754C12.8338 13.4786 12.9084 13.8961 13.2115 14.1098C13.296 14.1694 15.2741 15.5461 17.7491 16.1822C18.9071 16.5947 19.0364 17.8323 19.0711 18.9654C19.0711 19.0102 19.0711 19.0499 19.0761 19.0897C19.0811 19.537 19.0513 20.2278 18.9717 20.6254C18.1666 21.0826 15.0107 22.6631 10.2097 22.6631C5.42856 22.6631 2.25275 21.0777 1.44264 20.6204C1.36313 20.2228 1.32834 19.532 1.33828 19.0847C1.33828 19.0449 1.34325 19.0052 1.34325 18.9605C1.37804 17.8273 1.50725 16.5898 2.66526 16.1773C5.14031 15.5411 7.11835 14.1595 7.20284 14.1048C7.50601 13.8911 7.58056 13.4736 7.36685 13.1704C7.15314 12.8673 6.73567 12.7927 6.4325 13.0064C6.41262 13.0213 4.55882 14.3135 2.30742 14.8851C2.28754 14.89 2.27263 14.895 2.25772 14.9C0.100752 15.6405 0.0361426 17.9416 0.00632274 18.9207C0.00632274 18.9654 0.00632262 19.0052 0.00135265 19.0449C0.00135265 19.0499 0.00135265 19.0549 0.00135265 19.0599C-0.00361732 19.3183 -0.00858719 20.6453 0.254821 21.3113C0.304521 21.4405 0.393981 21.5498 0.51326 21.6244C0.662359 21.7238 4.23577 24 10.2146 24C16.1935 24 19.7669 21.7188 19.916 21.6244C20.0303 21.5498 20.1248 21.4405 20.1745 21.3113C20.423 20.6502 20.418 19.3233 20.413 19.0648Z" fill="#FFC856"/>
</svg>
