<svg width="29" height="32" viewBox="0 0 29 32" fill="none" xmlns="http://www.w3.org/2000/svg">
<path d="M26.9776 7.90332H19.757V6.51263C19.757 5.10082 18.716 3.95219 17.4366 3.95219H11.5634C10.284 3.95219 9.24301 5.10082 9.24301 6.51263V7.90332H2.02241C0.90727 7.90332 0 8.90445 0 10.1349V25.8161C0 27.0467 0.90727 28.0478 2.02241 28.0478H26.9775C28.0927 28.0478 28.9999 27.0466 28.9999 25.8161V10.1349C29 8.90445 28.0927 7.90332 26.9776 7.90332ZM10.3984 6.51263C10.3984 5.80376 10.921 5.22707 11.5635 5.22707H17.4366C18.079 5.22707 18.6016 5.80376 18.6016 6.51263V7.90332H10.3984V6.51263ZM27.8446 25.8162C27.8446 26.3438 27.4557 26.7729 26.9776 26.7729H2.02241C1.54431 26.7729 1.15536 26.3438 1.15536 25.8162V13.5155L10.0249 18.2625C10.2047 19.4723 11.1584 20.3984 12.3048 20.3984H16.6952C17.8416 20.3984 18.7953 19.4723 18.9751 18.2625L24.515 15.2974C24.8021 15.1438 24.9219 14.7624 24.7826 14.4457C24.6435 14.1289 24.2979 13.9966 24.0108 14.1504L18.8449 16.9153C18.5065 15.9698 17.6708 15.2988 16.6952 15.2988H12.3048C11.3292 15.2988 10.4934 15.9698 10.1551 16.9153L1.15536 12.0986V10.1349C1.15536 9.60738 1.54431 9.17819 2.02241 9.17819H26.9775C27.4556 9.17819 27.8446 9.60732 27.8446 10.1349V25.8162H27.8446ZM11.1494 17.8486C11.1494 17.1456 11.6677 16.5738 12.3048 16.5738H16.6952C17.3323 16.5738 17.8506 17.1457 17.8506 17.8486C17.8506 18.5516 17.3323 19.1235 16.6952 19.1235H12.3048C11.6677 19.1235 11.1494 18.5516 11.1494 17.8486Z" fill="#FFC856"/>
<path d="M27.0434 13.2358C26.9042 12.9189 26.5586 12.7869 26.2715 12.9404L25.9171 13.1301C25.6299 13.2837 25.5102 13.6651 25.6493 13.9818C25.7492 14.2089 25.9551 14.3412 26.1695 14.3412C26.2541 14.3412 26.34 14.3207 26.4212 14.2772L26.7756 14.0875C27.0627 13.9339 27.1825 13.5525 27.0434 13.2358Z" fill="#FFC856"/>
</svg>
