<svg width="26" height="26" viewBox="0 0 26 26" fill="none" xmlns="http://www.w3.org/2000/svg">
<path d="M23.4231 9.81647C23.883 9.36821 24.0453 8.71033 23.8469 8.09957C23.6484 7.48882 23.1304 7.05206 22.4949 6.95975L16.9379 6.15227C16.8288 6.13645 16.7345 6.06795 16.6857 5.96904L14.2006 0.933622C13.9164 0.357735 13.3409 0 12.6987 0C12.0565 0 11.481 0.357735 11.1968 0.933622L8.71168 5.96909C8.66283 6.06795 8.56858 6.13645 8.45945 6.15232L2.90256 6.95975C2.26705 7.05206 1.74905 7.48882 1.55054 8.09957C1.35203 8.71033 1.51443 9.36821 1.97435 9.81647L5.99539 13.736C6.07431 13.813 6.11037 13.9239 6.09172 14.0326L5.14247 19.567C5.03394 20.2 5.2892 20.8276 5.80874 21.2051C6.32827 21.5827 7.00426 21.6314 7.57261 21.3327L12.5428 18.7197C12.6405 18.6683 12.757 18.6683 12.8547 18.7197L17.8249 21.3327C18.0722 21.4626 18.3397 21.5269 18.6059 21.5268C18.9516 21.5268 19.2952 21.4185 19.5887 21.2051C20.1082 20.8275 20.3635 20.1999 20.2549 19.567L19.3057 14.0325C19.2871 13.9238 19.3231 13.813 19.402 13.736L23.4231 9.81647ZM17.9852 14.2591L18.9345 19.7937C18.9662 19.9789 18.8519 20.0845 18.8012 20.1212C18.7505 20.1579 18.6147 20.2342 18.4484 20.1467L13.4782 17.5337C13.2342 17.4054 12.9665 17.3412 12.6988 17.3412C12.4311 17.3412 12.1634 17.4054 11.9194 17.5336L6.9492 20.1466C6.78283 20.234 6.64707 20.1579 6.59643 20.1211C6.54578 20.0844 6.4314 19.9788 6.46319 19.7936L7.41244 14.2591C7.50564 13.7157 7.32564 13.1615 6.93075 12.7767L2.90971 8.85711C2.77513 8.72586 2.80559 8.57323 2.82499 8.51371C2.84428 8.45413 2.90941 8.31272 3.09537 8.28573L8.65221 7.47825C9.19779 7.39899 9.66926 7.05653 9.91331 6.56204L12.3985 1.52657C12.4816 1.35807 12.6362 1.33987 12.6988 1.33987C12.7614 1.33987 12.916 1.35802 12.9992 1.52657V1.52662L15.4843 6.56209C15.7283 7.05658 16.1998 7.39904 16.7453 7.4783L22.3023 8.28578C22.4882 8.31277 22.5533 8.45418 22.5727 8.51376C22.592 8.57333 22.6225 8.72601 22.4879 8.85716L18.4668 12.7767C18.072 13.1615 17.892 13.7157 17.9852 14.2591Z" fill="#001E20"/>
<path d="M20.5254 0.933289C20.226 0.715831 19.8071 0.7822 19.5896 1.0815L18.8785 2.06026C18.661 2.35957 18.7273 2.77856 19.0267 2.99602C19.1457 3.08238 19.2834 3.12399 19.4199 3.12399C19.6271 3.12399 19.8314 3.02821 19.9624 2.84785L20.6736 1.86909C20.8911 1.56974 20.8247 1.15075 20.5254 0.933289Z" fill="#001E20"/>
<path d="M6.51587 2.05627L5.80472 1.07751C5.58731 0.778306 5.16836 0.711938 4.86896 0.929297C4.56966 1.14675 4.50329 1.56575 4.72075 1.86505L5.4319 2.84381C5.563 3.02432 5.76727 3.12005 5.97451 3.12005C6.11106 3.12005 6.24886 3.07843 6.36771 2.99202C6.66701 2.77462 6.73338 2.35562 6.51587 2.05627Z" fill="#001E20"/>
<path d="M2.4579 15.0305C2.34357 14.6787 1.96565 14.4861 1.61371 14.6004L0.463081 14.9743C0.11115 15.0887 -0.0813584 15.4667 0.0329758 15.8185C0.124939 16.1017 0.387585 16.2817 0.669974 16.2817C0.738574 16.2817 0.808365 16.271 0.877164 16.2486L2.0278 15.8747C2.37968 15.7604 2.57224 15.3825 2.4579 15.0305Z" fill="#001E20"/>
<path d="M12.6987 22.4689C12.3288 22.4689 12.0288 22.7688 12.0288 23.1388V24.3487C12.0288 24.7187 12.3288 25.0186 12.6987 25.0186C13.0687 25.0186 13.3687 24.7187 13.3687 24.3487V23.1388C13.3687 22.7688 13.0688 22.4689 12.6987 22.4689Z" fill="#001E20"/>
<path d="M24.9331 14.9753L23.7824 14.6014C23.4307 14.4872 23.0526 14.6796 22.9382 15.0316C22.8239 15.3835 23.0164 15.7614 23.3684 15.8757L24.519 16.2496C24.5878 16.272 24.6575 16.2826 24.7261 16.2826C25.0086 16.2826 25.2712 16.1026 25.3632 15.8194C25.4775 15.4676 25.285 15.0896 24.9331 14.9753Z" fill="#001E20"/>
</svg>
