<svg width="22" height="22" viewBox="0 0 22 22" fill="none" xmlns="http://www.w3.org/2000/svg">
<path d="M11 3.48047C11.2312 3.48047 11.4198 3.29742 11.4293 3.0684C11.4297 3.06281 11.4297 3.0568 11.4297 3.05078C11.4297 2.81359 11.2372 2.62109 11 2.62109C10.7628 2.62109 10.5703 2.81359 10.5703 3.05078C10.5703 3.0568 10.5703 3.06281 10.5707 3.0684C10.5802 3.29742 10.7688 3.48047 11 3.48047Z" fill="#FFC856"/>
<path d="M12.2891 11.4297C13.7133 11.4297 14.8672 10.276 14.8672 8.85156C14.8672 7.42998 13.7106 6.27344 12.2891 6.27344H8.42188C8.1846 6.27344 7.99219 6.46581 7.99219 6.70312V10.5703H7.5625C7.32523 10.5703 7.13281 10.7627 7.13281 11C7.13281 11.2373 7.32523 11.4297 7.5625 11.4297H7.99219V13.1484H7.5625C7.32523 13.1484 7.13281 13.3408 7.13281 13.5781C7.13281 13.8154 7.32523 14.0078 7.5625 14.0078H7.99219V16.1562C7.99219 16.3936 8.1846 16.5859 8.42188 16.5859C8.65915 16.5859 8.85156 16.3936 8.85156 16.1562V14.0078H11.8594C12.0966 14.0078 12.2891 13.8154 12.2891 13.5781C12.2891 13.3408 12.0966 13.1484 11.8594 13.1484H8.85156V11.4297H12.2891ZM8.85156 7.13281H12.2891C13.2368 7.13281 14.0078 7.90384 14.0078 8.85156C14.0078 9.80079 13.2385 10.5703 12.2891 10.5703H8.85156V7.13281Z" fill="#FFC856"/>
<path d="M11 22C16.9233 22 22 16.9256 22 11C22 5.08574 16.9346 0 11 0C5.07667 0 0 5.07444 0 11C0 16.9228 5.07444 22 11 22ZM11 0.859375C16.402 0.859375 21.1406 5.59797 21.1406 11C21.1406 16.402 16.402 21.1406 11 21.1406C5.59797 21.1406 0.859375 16.402 0.859375 11C0.859375 5.59797 5.59797 0.859375 11 0.859375Z" fill="#FFC856"/>
<path d="M11 19.4219C15.4773 19.4219 19.4219 15.5075 19.4219 11C19.4219 7.17428 16.5497 3.67942 12.8107 2.7916C12.5797 2.73673 12.3481 2.87947 12.2933 3.11039C12.2385 3.3413 12.3812 3.5729 12.6121 3.62773C16.0044 4.43318 18.5625 7.6026 18.5625 11C18.5625 15.0286 15.0286 18.5625 11 18.5625C6.97138 18.5625 3.4375 15.0286 3.4375 11C3.4375 7.6026 5.9956 4.43318 9.3879 3.62773C9.61877 3.5729 9.76147 3.3413 9.70668 3.11039C9.65186 2.87943 9.42017 2.73669 9.18934 2.7916C5.45321 3.67873 2.57812 7.17119 2.57812 11C2.57812 15.4774 6.49254 19.4219 11 19.4219Z" fill="#FFC856"/>
</svg>
