<svg width="26" height="26" viewBox="0 0 26 26" fill="none" xmlns="http://www.w3.org/2000/svg">
<path d="M22.8312 6.18403C22.8493 6.18606 22.8672 6.18702 22.8852 6.18702C23.0136 6.18702 23.1378 6.13614 23.2297 6.04427L25.8575 3.41658C25.9911 3.28287 26.0355 3.08391 25.9711 2.90607C25.9067 2.72823 25.7452 2.60372 25.5569 2.5866L23.5921 2.408L23.4134 0.44321C23.3964 0.254911 23.2718 0.0934766 23.094 0.0291362C22.9162 -0.0352549 22.7172 0.00902668 22.5835 0.142735L19.9557 2.77048C19.8511 2.87514 19.7996 3.0218 19.816 3.16897L20.0485 5.26234L19.5565 5.75441C17.7391 4.09197 15.3554 3.03942 12.7323 2.92283V1.99743C12.7323 1.72829 12.5141 1.51008 12.245 1.51008C11.9758 1.51008 11.7576 1.72829 11.7576 1.99743V2.92268C6.1653 3.1713 1.66127 7.67533 1.41259 13.2677H0.487352C0.218209 13.2677 0 13.4859 0 13.7551C0 14.0242 0.218209 14.2424 0.487352 14.2424H1.41259C1.66127 19.8348 6.1653 24.3388 11.7576 24.5875V25.5127C11.7576 25.7818 11.9758 26 12.245 26C12.5141 26 12.7323 25.7818 12.7323 25.5127V24.5875C18.3247 24.3388 22.8287 19.8348 23.0774 14.2424H24.0026C24.2718 14.2424 24.49 14.0242 24.49 13.7551C24.49 13.4859 24.2718 13.2677 24.0026 13.2677H23.0774C22.9608 10.6446 21.9082 8.26095 20.2458 6.44347L20.7379 5.9514L22.8312 6.18403ZM22.537 1.56772L22.6582 2.90074C22.6795 3.13504 22.8651 3.32065 23.0994 3.34198L24.4324 3.46314L22.7061 5.18947L21.0002 4.99995L20.8107 3.29409L22.537 1.56772ZM22.102 13.2677H21.4154C21.1462 13.2677 20.928 13.4859 20.928 13.7551C20.928 14.0242 21.1462 14.2424 21.4154 14.2424H22.102C21.855 19.2973 17.7872 23.365 12.7324 23.612V22.9255C12.7324 22.6563 12.5142 22.4381 12.245 22.4381C11.9759 22.4381 11.7577 22.6563 11.7577 22.9255V23.612C6.70277 23.3651 2.63506 19.2973 2.38801 14.2425H3.07463C3.34377 14.2425 3.56198 14.0243 3.56198 13.7551C3.56198 13.486 3.34377 13.2678 3.07463 13.2678H2.38801C2.63506 8.21296 6.70277 4.14514 11.7576 3.89814V4.58471C11.7576 4.85385 11.9758 5.07206 12.245 5.07206C12.5141 5.07206 12.7323 4.85385 12.7323 4.58471V3.89814C15.0869 4.01321 17.2272 4.95719 18.867 6.44382L17.4005 7.9103C16.0252 6.69565 14.2198 5.95729 12.2449 5.95729C7.9452 5.95729 4.4471 9.45533 4.4471 13.7551C4.4471 18.0549 7.9452 21.5529 12.2449 21.5529C16.5447 21.5529 20.0428 18.0549 20.0428 13.7551C20.0428 11.7803 19.3044 9.97488 18.0898 8.59945L19.5563 7.13298C21.043 8.77287 21.9869 10.9132 22.102 13.2677ZM11.9004 14.0997C11.9956 14.1949 12.1203 14.2425 12.245 14.2425C12.3697 14.2425 12.4945 14.1949 12.5896 14.0997L15.2363 11.453C15.7283 12.0908 16.022 12.8891 16.022 13.7551C16.022 15.8378 14.3276 17.5322 12.2449 17.5322C10.1622 17.5322 8.46784 15.8378 8.46784 13.7551C8.46784 11.6724 10.1622 9.97803 12.2449 9.97803C13.1109 9.97803 13.9092 10.2717 14.5471 10.7637L11.9003 13.4105C11.7101 13.6008 11.7101 13.9094 11.9004 14.0997ZM12.245 9.00337C9.62485 9.00337 7.49324 11.135 7.49324 13.7552C7.49324 16.3753 9.62485 18.507 12.245 18.507C14.8652 18.507 16.9968 16.3753 16.9968 13.7552C16.9968 12.6203 16.5964 11.5774 15.9301 10.7594L17.3998 9.28963C18.4387 10.4872 19.0682 12.049 19.0682 13.7551C19.0682 17.5174 16.0073 20.5782 12.2451 20.5782C8.48282 20.5782 5.42201 17.5174 5.42201 13.7551C5.42201 9.99285 8.48282 6.93199 12.2451 6.93199C13.9511 6.93199 15.513 7.56148 16.7106 8.60032L15.2409 10.0701C14.4228 9.40379 13.38 9.00337 12.245 9.00337Z" fill="#FFC856"/>
</svg>
