<svg width="29" height="25" viewBox="0 0 29 25" fill="none" xmlns="http://www.w3.org/2000/svg">
<path d="M21.086 0H1.63295C0.732507 0 0 0.787656 0 1.75583V14.3052C0 15.2734 0.732507 16.0611 1.63295 16.0611H2.89434V20.733C2.89434 21.0304 3.06097 21.2987 3.31664 21.4126C3.40126 21.4503 3.49018 21.4686 3.57831 21.4686C3.75638 21.4686 3.93128 21.3938 4.06217 21.2531L8.89067 16.0612H9.85942C10.2373 16.0612 10.5435 15.7319 10.5435 15.3256C10.5435 14.9192 10.2371 14.5899 9.85942 14.5899C9.85942 14.5899 8.57429 14.5909 8.56086 14.5924C8.4016 14.604 8.24527 14.6745 8.1235 14.8054L4.26251 18.9571C4.26251 18.9571 4.26132 15.2791 4.25911 15.26C4.22824 14.8845 3.9353 14.5899 3.57808 14.5899H1.63295C1.48693 14.5899 1.36822 14.4622 1.36822 14.3053V1.75583C1.36822 1.59882 1.48699 1.47117 1.63295 1.47117H21.086C21.232 1.47117 21.3507 1.59888 21.3507 1.75583V6.5705C21.3507 6.97679 21.6571 7.30609 22.0348 7.30609C22.4125 7.30609 22.7189 6.97679 22.7189 6.5705V1.75583C22.7189 0.787656 21.9864 0 21.086 0Z" fill="#FFC856"/>
<path d="M27.3674 8.99759H13.7506C12.8502 8.99759 12.1177 9.78525 12.1177 10.7535V19.3146C12.1177 20.2828 12.8502 21.0705 13.7506 21.0705H22.2755L25.7293 24.7843C25.8602 24.9251 26.0352 24.9998 26.2132 24.9998C26.3013 24.9998 26.3903 24.9815 26.4749 24.9438C26.7304 24.8299 26.8972 24.5617 26.8972 24.2642V21.0704H27.3673C28.2677 21.0704 29.0003 20.2828 29.0003 19.3145V10.7534C29.0003 9.78525 28.2678 8.99759 27.3674 8.99759ZM27.6322 19.3146C27.6322 19.4715 27.5134 19.5992 27.3674 19.5992H26.2134C25.8534 19.5992 25.559 19.8984 25.532 20.2781C25.5302 20.2942 25.5291 22.4883 25.5291 22.4883L23.0452 19.8174C23.0426 19.8146 23.0399 19.812 23.0373 19.8092C23.0276 19.799 23.0183 19.7901 23.0096 19.7821C22.8892 19.6686 22.7319 19.5992 22.5593 19.5992H13.7506C13.6046 19.5992 13.4859 19.4715 13.4859 19.3145V10.7534C13.4859 10.5964 13.6047 10.4688 13.7506 10.4688H27.3674C27.5134 10.4688 27.6322 10.5965 27.6322 10.7534V19.3146Z" fill="#FFC856"/>
<path d="M20.5581 14.2984C20.1805 14.2984 19.874 14.628 19.874 15.034C19.874 15.4401 20.1805 15.7696 20.5581 15.7696C20.9358 15.7696 21.2422 15.4401 21.2422 15.034C21.2422 14.628 20.9357 14.2984 20.5581 14.2984Z" fill="#FFC856"/>
<path d="M17.5857 4.86343H5.13525C4.75747 4.86343 4.45117 5.19274 4.45117 5.59902C4.45117 6.0053 4.75753 6.3346 5.13525 6.3346H17.5857C17.9634 6.3346 18.2697 6.0053 18.2697 5.59902C18.2697 5.19274 17.9634 4.86343 17.5857 4.86343Z" fill="#FFC856"/>
<path d="M9.86033 9.72676H5.13525C4.75747 9.72676 4.45117 10.0561 4.45117 10.4623C4.45117 10.8686 4.75753 11.1979 5.13525 11.1979H9.86033C10.2382 11.1979 10.5444 10.8686 10.5444 10.4623C10.5444 10.0561 10.2381 9.72676 9.86033 9.72676Z" fill="#FFC856"/>
<path d="M17.3794 14.2984C17.0018 14.2984 16.6953 14.628 16.6953 15.034C16.6953 15.4401 17.0018 15.7696 17.3794 15.7696C17.7571 15.7696 18.0635 15.4401 18.0635 15.034C18.0635 14.628 17.7571 14.2984 17.3794 14.2984Z" fill="#FFC856"/>
<path d="M23.7363 14.2984C23.3587 14.2984 23.0522 14.628 23.0522 15.034C23.0522 15.4401 23.3587 15.7696 23.7363 15.7696C24.114 15.7696 24.4204 15.4401 24.4204 15.034C24.4204 14.628 24.1139 14.2984 23.7363 14.2984Z" fill="#FFC856"/>
</svg>
