<svg width="27" height="21" viewBox="0 0 27 21" fill="none" xmlns="http://www.w3.org/2000/svg">
<path d="M25.9944 0H0.456042C0.204307 0 0 0.203851 0 0.456042V20.5219C0 20.7741 0.204307 20.9779 0.456042 20.9779H25.9944C26.2461 20.9779 26.4504 20.7741 26.4504 20.5219V0.456042C26.4504 0.203851 26.2461 0 25.9944 0ZM25.5383 20.0658H0.912083V0.912083H25.5383V20.0658Z" fill="#001E20"/>
<path d="M7.29653 10.096C8.69704 10.096 9.83623 8.9568 9.83623 7.55675C9.83623 6.15579 8.69704 5.0166 7.29653 5.0166C5.89603 5.0166 4.75684 6.15579 4.75684 7.5563C4.75684 8.9568 5.89603 10.096 7.29653 10.096ZM7.29653 5.92869C8.19402 5.92869 8.92415 6.65926 8.92415 7.5563C8.92415 8.45333 8.19402 9.18391 7.29653 9.18391C6.39904 9.18391 5.66892 8.45379 5.66892 7.55675C5.66892 6.65972 6.39904 5.92869 7.29653 5.92869Z" fill="#001E20"/>
<path d="M3.19261 18.2416C3.29932 18.2416 3.40695 18.2042 3.4936 18.128L10.933 11.5783L15.6311 16.276C15.8095 16.4543 16.0977 16.4543 16.276 16.276C16.4543 16.0977 16.4543 15.8095 16.276 15.6312L14.0838 13.439L18.2707 8.85394L23.4062 13.5617C23.5918 13.7318 23.8805 13.719 24.0506 13.5334C24.2207 13.3478 24.2084 13.0591 24.0223 12.889L18.5498 7.87254C18.4604 7.79091 18.3414 7.75032 18.2215 7.75306C18.1006 7.75853 17.9866 7.81189 17.905 7.90127L13.4385 12.7932L11.2755 10.6302C11.1049 10.4601 10.8322 10.4515 10.6516 10.6102L2.89117 17.443C2.70191 17.6095 2.68367 17.8977 2.85012 18.087C2.94042 18.1896 3.06629 18.2416 3.19261 18.2416Z" fill="#001E20"/>
</svg>
