<svg width="35" height="35" viewBox="0 0 35 35" fill="none" xmlns="http://www.w3.org/2000/svg">
<g clip-path="url(#clip0)">
<path d="M11.5471 25.8138C13.8196 27.114 16.2658 27.504 18.8432 27.3824C20.0493 27.3274 20.4122 27.0118 20.4669 25.8111L11.5471 25.8138ZM11.5471 25.8138C9.54364 24.6675 7.9901 23.0492 6.63782 21.2173M11.5471 25.8138L1.06892 8.28807M0.176765 9.70058C-0.231136 8.7927 0.0671844 8.30536 1.06892 8.28807M0.176765 9.70058C1.98883 13.7302 4.00509 17.6501 6.63782 21.2173M0.176765 9.70058L0.632847 9.49566M0.176765 9.70058L0.632779 9.49551M1.06892 8.28807C2.73231 8.25573 4.39549 8.25806 6.06087 8.28574M1.06892 8.28807L6.06087 8.28574M6.63782 21.2173L7.04009 20.9203M6.63782 21.2173L7.04009 20.9203M7.04009 20.9203C4.43791 17.3945 2.43867 13.5114 0.632847 9.49566M7.04009 20.9203C8.36814 22.7195 9.87292 24.2799 11.7954 25.3798L11.7954 25.3798C13.964 26.6206 16.3092 27.0013 18.8197 26.883L18.8205 26.8829C19.4163 26.8558 19.6382 26.7629 19.7425 26.6639C19.8394 26.5719 19.9409 26.3709 19.9674 25.7884L19.9674 25.787C20.0077 24.9531 20.1018 24.0368 20.5652 23.1919C20.8069 22.7508 21.1558 22.4101 21.6245 22.298C22.0902 22.1866 22.5563 22.3292 22.9739 22.6003L22.9741 22.6004C23.375 22.8608 23.7 23.1833 23.9879 23.4976L23.9885 23.4982C24.2157 23.7471 24.4365 23.9941 24.6551 24.2387C25.1045 24.7415 25.5449 25.2344 26.0146 25.7128L26.0147 25.7129C26.82 26.5339 27.7308 26.9782 28.8628 26.8843L28.8835 26.8825L28.9043 26.8825L33.9837 26.8849C34.1667 26.8676 34.3235 26.7512 34.4118 26.5323C34.504 26.3038 34.5084 25.9756 34.3348 25.6387C34.0266 25.0434 33.6185 24.5041 33.1653 23.9578C32.4202 23.065 31.5866 22.2755 30.728 21.4623C30.4122 21.1631 30.0929 20.8607 29.7733 20.5487L0.632847 9.49566M0.632847 9.49566L0.632779 9.49551M0.632779 9.49551C0.445455 9.07851 0.508714 8.94053 0.51792 8.92584C0.525682 8.91346 0.618736 8.79591 1.07755 8.78799L1.07864 8.78797M0.632779 9.49551L1.07864 8.78797M6.06087 8.28574C6.73694 8.29565 7.18449 8.68339 7.44555 9.32207M6.06087 8.28574L10.8289 15.5917C9.44671 13.6403 8.3455 11.5349 7.44555 9.32207M1.07864 8.78797C2.73512 8.75577 4.39222 8.75807 6.05256 8.78567L6.05354 8.78569M1.07864 8.78797L6.05354 8.78569M6.05354 8.78569C6.29123 8.78917 6.46504 8.85645 6.602 8.9629C6.74449 9.07364 6.87569 9.24957 6.98253 9.51078M6.05354 8.78569L11.8244 17.4091M7.44555 9.32207L6.98239 9.51043C6.98244 9.51055 6.98248 9.51066 6.98253 9.51078M7.44555 9.32207L6.98273 9.51125C6.98266 9.5111 6.9826 9.51094 6.98253 9.51078M6.98253 9.51078C7.89437 11.7528 9.01299 13.893 10.4209 15.8807L10.421 15.8808C10.7828 16.3915 11.2053 16.9855 11.8244 17.4091M11.8244 17.4091C12.1768 17.6504 12.5969 17.8074 13.0256 17.6809C13.4538 17.5546 13.7215 17.1953 13.8871 16.8031L11.8244 17.4091ZM13.7201 15.2937C13.6803 15.7409 13.603 16.1908 13.4265 16.6085L13.7201 15.2937ZM13.7201 15.2937C13.8519 13.7547 13.8693 12.2183 13.6382 10.6847L13.7201 15.2937ZM14.2183 15.3363L14.2182 15.338C14.1763 15.8091 14.0924 16.3172 13.8871 16.803L14.2183 15.3363ZM14.2183 15.3363C14.3521 13.7742 14.3715 12.196 14.1327 10.6108C14.0505 10.0573 13.8474 9.56361 13.494 9.17733C13.2 8.85601 12.8236 8.63263 12.3819 8.50413M14.2183 15.3363L12.3819 8.50413M12.3819 8.50413C12.4965 8.38849 12.6016 8.3049 12.7125 8.24361C12.87 8.15658 13.0724 8.09668 13.387 8.09668H19.0988C19.4569 8.17337 19.588 8.27593 19.66 8.37176C19.7522 8.49436 19.8219 8.69998 19.8825 9.13068L19.8873 15.4911C19.8819 15.7368 19.9385 16.1464 20.0829 16.5342C20.2227 16.9099 20.4988 17.4079 21.0279 17.6023L21.0364 17.6054L21.045 17.6082C21.4774 17.7496 21.8457 17.636 22.1257 17.453C22.3428 17.3112 22.5312 17.109 22.6617 16.9689C22.6805 16.9487 22.6981 16.9298 22.7144 16.9126L22.7152 16.9118C24.1463 15.3928 25.1572 13.6091 26.0438 11.8031C26.4437 10.996 26.7856 10.1619 27.1114 9.34299L27.1115 9.34276C27.2104 9.0939 27.3163 8.96205 27.4213 8.8877C27.5221 8.81628 27.6742 8.7609 27.9398 8.76603L27.9398 8.76611L27.949 8.76612L33.4952 8.77104H33.4956C33.661 8.77104 33.7887 8.77424 33.9013 8.79354L33.9017 8.79361C34.3395 8.86821 34.4448 8.97704 34.47 9.01783C34.4941 9.05687 34.5457 9.19814 34.411 9.62381C33.9982 10.9232 33.2051 12.0212 32.3583 13.1936C32.3314 13.2309 32.3044 13.2682 32.2774 13.3057C31.8484 13.8992 31.4052 14.4837 30.9578 15.0737C30.9271 15.114 30.8965 15.1545 30.8658 15.1949C30.3886 15.8243 29.908 16.4604 29.4447 17.1107C29.4448 17.1105 29.445 17.1103 29.4451 17.1101L12.3819 8.50413Z" stroke="#001E20"/>
</g>
<defs>
<clipPath id="clip0">
<rect width="35" height="35" fill="white"/>
</clipPath>
</defs>
</svg>
