<svg width="418" height="418" viewBox="0 0 418 418" fill="none" xmlns="http://www.w3.org/2000/svg">
<path d="M379.621 136.947C389.263 159.763 394.179 184.012 394.179 209.024C394.179 210.217 394.179 211.458 394.132 212.652H417.998C417.998 211.458 418.046 210.217 418.046 209.024C418.046 152.221 395.373 100.717 358.618 63.0557L341.721 79.9532C357.855 96.5167 370.599 115.705 379.621 136.947Z" fill="#FFC856"/>
<path d="M136.949 379.622C115.707 370.648 96.5185 357.904 79.9073 341.722L63.0098 358.62C100.671 395.374 152.175 418.048 208.978 418.048V394.181C184.014 394.133 159.765 389.264 136.949 379.622Z" fill="#007550"/>
<path d="M417.998 212.652H394.132C393.702 236.375 388.833 259.383 379.621 281.101C370.313 303.154 356.948 322.963 339.954 339.956C339.334 340.577 338.713 341.15 338.141 341.77L355.038 358.668C393.082 321.436 416.996 269.836 417.998 212.652Z" fill="#007550"/>
<path d="M281.054 379.622C258.237 389.264 233.989 394.181 208.977 394.181V418.048C265.779 418.048 317.283 395.374 354.945 358.62L338.047 341.722C321.484 357.856 302.343 370.601 281.054 379.622Z" fill="#FF513F"/>
<path d="M78.0907 339.909C61.0977 322.916 47.7324 303.106 38.4244 281.054C29.2119 259.335 24.3431 236.375 23.9135 212.652H0.046875C1.00154 269.836 24.9636 321.436 63.0547 358.62L79.9523 341.723C79.3318 341.102 78.7112 340.529 78.0907 339.909Z" fill="#FFD45D"/>
<path d="M209.023 23.8666C234.036 23.8666 258.284 28.7354 281.101 38.4253C303.106 47.7332 322.915 61.0986 339.908 78.0916C340.529 78.7121 341.101 79.3326 341.722 79.9054L358.619 63.0079C320.624 24.153 267.64 0 209.023 0V23.8666Z" fill="#001E20"/>
<path d="M78.0914 78.0916C95.0845 61.0986 114.894 47.7332 136.947 38.4253C159.763 28.7831 184.011 23.8666 209.024 23.8666V0C150.36 0 97.3757 24.153 59.4277 63.0556L76.3253 79.9532C76.8981 79.3326 77.4709 78.7121 78.0914 78.0916Z" fill="#FF513F"/>
<path d="M23.8666 209.024C23.8666 184.012 28.7354 159.763 38.4253 136.947C47.3991 115.705 60.1439 96.5165 76.3254 79.9054L59.4279 63.0078C22.6733 100.717 0 152.221 0 209.024C0 210.217 0 211.458 0.0477332 212.651H23.9144C23.8666 211.41 23.8666 210.217 23.8666 209.024Z" fill="#FFD45D"/>
</svg>
